<svg xmlns="http://www.w3.org/2000/svg" width="30" height="30" viewBox="0 0 30 30"><path d="M15,30A15,15,0,0,1,4.393,4.393,15,15,0,1,1,25.606,25.607,14.9,14.9,0,0,1,15,30ZM12.243,6.723A9.806,9.806,0,0,0,6.727,8.792a26.521,26.521,0,0,0-2.839,11.49,7.179,7.179,0,0,0,6.011,3c.012-.014.746-.907,1.321-1.636a6.227,6.227,0,0,1-3.45-2.326s.2.139.553.336a.256.256,0,0,0,.078.059.806.806,0,0,0,.087.049.784.784,0,0,1,.09.05,11.559,11.559,0,0,0,1.439.67,16.45,16.45,0,0,0,2.9.848,14.381,14.381,0,0,0,2.634.249,13.446,13.446,0,0,0,2.471-.229,12.889,12.889,0,0,0,2.857-.848,11.259,11.259,0,0,0,2.263-1.16,6.3,6.3,0,0,1-3.564,2.343c.571.723,1.27,1.561,1.3,1.6a7.258,7.258,0,0,0,6.032-3,26.619,26.619,0,0,0-2.839-11.49,9.807,9.807,0,0,0-5.516-2.069h-.022l-.275.315a13.244,13.244,0,0,1,4.908,2.5,16.162,16.162,0,0,0-5.933-1.892,16.652,16.652,0,0,0-3.982.04,1.642,1.642,0,0,0-.28.03l-.055.009A14.826,14.826,0,0,0,8.442,8.969c-.722.332-1.158.569-1.163.572l0-.006a13.773,13.773,0,0,1,5.179-2.576l-.2-.236ZM18.908,18.45A2.107,2.107,0,0,1,16.9,16.262a2.107,2.107,0,0,1,2.011-2.188,2.107,2.107,0,0,1,2.01,2.188A2.107,2.107,0,0,1,18.908,18.45Zm-7.195,0A2.107,2.107,0,0,1,9.7,16.262a2.107,2.107,0,0,1,2.011-2.188,1.935,1.935,0,0,1,1.385.592,2.232,2.232,0,0,1,.625,1.6A2.107,2.107,0,0,1,11.713,18.45Z" transform="translate(0 0)"></path></svg>