<svg xmlns="http://www.w3.org/2000/svg" xmlns:xlink="http://www.w3.org/1999/xlink" width="180.21" height="36.461" viewBox="0 0 180.21 36.461"><defs><style>.a{fill:#fff;}.b{fill:url(#a);}</style><linearGradient id="a" x1="0.138" y1="-0.102" x2="1.116" y2="1.115" gradientUnits="objectBoundingBox"><stop offset="0" stop-color="#ff3f3b"/><stop offset="1" stop-color="#ff1e38"/></linearGradient></defs><path class="a" d="M67.354,24.379a1.052,1.052,0,0,0,1.189,1.189h2.37A1.052,1.052,0,0,0,72.1,24.379V22.6h-2.37V19.044h5.929v5.335q0,4.748-4.741,4.741h-2.37q-4.748,0-4.741-4.741V17.261q0-4.748,4.741-4.741h7.118v3.559H68.551a1.052,1.052,0,0,0-1.189,1.189v7.111Z" transform="translate(-16.396 -3.217)"/><path class="a" d="M96.761,29.13H93.2L92.1,25.57H86.009l-1.1,3.559H81.35l4.978-16.6h5.454Zm-9.674-7.118h3.938l-1.969-5.929Z" transform="translate(-20.903 -3.22)"/><path class="a" d="M103.687,12.52h4.978L112.582,22.6,116.5,12.52h4.978v16.6h-3.559V19.044l-3.8,10.083h-3.084l-3.8-10.083V29.127H103.68V12.52Z" transform="translate(-26.641 -3.217)"/><path class="a" d="M141.49,19.044V22.6h-7.118v2.965h7.118v3.559H130.82V12.52h10.67v3.559h-7.118v2.965h7.118Z" transform="translate(-33.615 -3.217)"/><path class="a" d="M154.3,23.2h-2.37v5.929H148.37V12.52h7.118q4.748,0,4.741,4.741v1.189a4.281,4.281,0,0,1-2.185,4.1l2.185,6.568H156.67Zm-2.37-7.118v3.559h3.559a1.052,1.052,0,0,0,1.189-1.189V17.261a1.052,1.052,0,0,0-1.189-1.189h-3.559Z" transform="translate(-38.125 -3.217)"/><path class="a" d="M171.079,12.52v6.524h4.741V12.52h3.559v16.6H175.82V22.6h-4.741V29.12H167.52V12.52Z" transform="translate(-43.045 -3.217)"/><path class="a" d="M200.5,29.13h-3.559l-1.1-3.559h-6.093l-1.1,3.559H185.09l4.978-16.6h5.454Zm-9.682-7.118h3.938l-1.969-5.929Z" transform="translate(-47.56 -3.22)"/><path class="a" d="M207.42,29.127V25.568h7.118a1.052,1.052,0,0,0,1.189-1.189v-.594a1.052,1.052,0,0,0-1.189-1.189h-2.37q-4.748,0-4.741-4.741v-.594q0-4.748,4.741-4.741h7.111v3.559h-7.111a1.052,1.052,0,0,0-1.189,1.189v.594a1.052,1.052,0,0,0,1.189,1.189h2.37q4.748,0,4.741,4.741v.594q0,4.748-4.741,4.741Z" transform="translate(-53.298 -3.217)"/><path class="a" d="M230.129,12.52v6.524h4.741V12.52h3.559v16.6H234.87V22.6h-4.741V29.12H226.57V12.52Z" transform="translate(-58.219 -3.217)"/><path class="b" d="M23.109,16.964v3.321h3.96v7.141a12.46,12.46,0,0,1-4.168,2.4,8.712,8.712,0,0,1-1.412.357V6.219c.215.074.5.074.706.141a13.489,13.489,0,0,1,3.886,1.412l.074,4.666h3.886c0-1.129.074-2.192.074-3.247V6.011a17.936,17.936,0,0,0-5.721-2.824,19.222,19.222,0,0,0-2.9-.565V0H18.175V2.4h-.215a22.464,22.464,0,0,0-3.819.282V0H10.819V3.463c-.141.074-.282.074-.424.141A17.122,17.122,0,0,0,4.741,7,13.562,13.562,0,0,0,1.2,12.089,17.193,17.193,0,0,0,0,18.442a16.682,16.682,0,0,0,1.063,5.937,13.743,13.743,0,0,0,3.321,5.016,15.607,15.607,0,0,0,5.655,3.463,4.2,4.2,0,0,1,.847.282v3.321h3.321V33.92a32.341,32.341,0,0,0,3.819.282h.141v2.259h3.321V33.92a21.121,21.121,0,0,0,3.745-.988,15.525,15.525,0,0,0,5.655-3.96V16.964ZM17.952,5.937h.215V17.031h-3.96V6.286A20.77,20.77,0,0,1,17.952,5.937ZM7.564,26.854a10.886,10.886,0,0,1-2.541-3.886,12.528,12.528,0,0,1-.847-4.525A12.619,12.619,0,0,1,7.713,9.608a11.224,11.224,0,0,1,3.106-2.192V29.038A11.622,11.622,0,0,1,7.564,26.854Zm10.529,3.678a21.747,21.747,0,0,1-3.886-.357v-9.89h3.96V30.532Z" transform="translate(0)"/></svg>