<svg xmlns="http://www.w3.org/2000/svg" xmlns:xlink="http://www.w3.org/1999/xlink" width="180" height="180" viewBox="0 0 180 180"><defs><style>.a,.d{fill:#fff;stroke:#707070;}.b{fill:none;}.c{mix-blend-mode:luminosity;isolation:isolate;}.d,.g{opacity:0;}.e{clip-path:url(#a);}.f{clip-path:url(#b);}.h{fill:#0f0d0d;}.i{fill:#e83c41;}.j{stroke:none;}</style><clipPath id="a"><rect class="a" width="180" height="180" transform="translate(100 40)"/></clipPath><clipPath id="b"><rect class="b" width="152" height="152" transform="translate(-0.372 -0.372)"/></clipPath></defs><g class="c"><g class="d"><rect class="j" width="180" height="180"/><rect class="b" x="0.5" y="0.5" width="179" height="179"/></g><g class="e" transform="translate(-100 -40)"><g transform="translate(190.372 130.372)"><g class="f" transform="translate(-76 -76)"><g transform="translate(0 0)"><g class="g"><g class="f"><rect class="h" width="152" height="152" transform="translate(-0.372 -0.372)"/></g></g><path class="i" d="M139.052,96.758,120.245,85.93a5.382,5.382,0,0,0-5.382,9.308l14.374,8.3a43.059,43.059,0,1,1-15.7-59.27l-5.382,9.245a32.358,32.358,0,1,0-1.52,57.053,5.382,5.382,0,0,0-4.812-9.625,21.593,21.593,0,1,1,4.5-35.587,5.382,5.382,0,0,0,8.169-1.393L125.311,45.15a5.382,5.382,0,0,0-1.52-7.029A53.634,53.634,0,0,0,92.066,27.8L90.23,20.835a5.382,5.382,0,0,0-10.385,2.786l1.393,5.319L78.2,29.7a54.456,54.456,0,0,0-7.282,2.533L69.4,26.47a5.382,5.382,0,1,0-10.385,2.786l2.216,8.359a53.887,53.887,0,0,0,26.215,97.77l2.216,8.359a5.382,5.382,0,0,0,10.385-2.786l-1.52-5.762a54.457,54.457,0,0,0,7.535-1.456l2.976-.887,1.393,5.319a5.382,5.382,0,0,0,10.385-2.786l-1.836-6.965a53.7,53.7,0,0,0,22.289-24.7,5.382,5.382,0,0,0-2.216-6.839" transform="translate(-14.412 -6.629)"/></g></g></g></g></g></svg>