<svg xmlns="http://www.w3.org/2000/svg" xmlns:xlink="http://www.w3.org/1999/xlink" width="180" height="180" viewBox="0 0 180 180"><defs><clipPath id="a"><rect width="180" height="180" transform="translate(500 3)" fill="#fff" stroke="#707070" stroke-width="1"/></clipPath><clipPath id="b"><rect width="137.334" height="160.224" fill="none"/></clipPath><clipPath id="d"><rect width="12.005" height="91.555" fill="none"/></clipPath><clipPath id="e"><rect width="20.245" height="94.618" fill="none"/></clipPath><clipPath id="f"><path d="M534.8,349.173a7.473,7.473,0,1,0,7.473-7.473,7.473,7.473,0,0,0-7.473,7.473" transform="translate(-534.8 -341.7)" fill="none"/></clipPath><linearGradient id="g" x1="-4.095" y1="8.1" x2="-4.087" y2="8.1" gradientUnits="objectBoundingBox"><stop offset="0" stop-color="#575656"/><stop offset="1" stop-color="#2c3138"/></linearGradient><clipPath id="h"><path d="M557.782,359.723a5.413,5.413,0,0,0-3.834,8.652.149.149,0,0,0,.137.057,5.328,5.328,0,0,0,4.177-2.987,10.723,10.723,0,0,1,3.845-4.143,5.4,5.4,0,0,0-3.845-1.6l-.481.023" transform="translate(-552.856 -359.7)" fill="none"/></clipPath><linearGradient id="i" x1="-5.336" y1="10.092" x2="-5.326" y2="10.092" xlink:href="#g"/><clipPath id="j"><rect width="3.239" height="43.696" fill="none"/></clipPath><clipPath id="k"><rect width="14.695" height="43.736" fill="none"/></clipPath><clipPath id="l"><rect width="5.047" height="12" fill="none"/></clipPath><clipPath id="m"><rect width="11.559" height="12" fill="none"/></clipPath><clipPath id="n"><rect width="14.924" height="33.828" fill="none"/></clipPath><clipPath id="o"><rect width="1.511" height="36.118" fill="none"/></clipPath><clipPath id="p"><rect width="15.977" height="27.217" fill="none"/></clipPath><clipPath id="q"><rect width="5.94" height="5.75" fill="none"/></clipPath><clipPath id="r"><rect width="18.7" height="34.803" fill="none"/></clipPath></defs><rect width="180" height="180" fill="#fff" opacity="0"/><g transform="translate(-500 -3)" clip-path="url(#a)"><g transform="translate(590 93) rotate(45)"><g transform="translate(-68.667 -80.112)" clip-path="url(#b)"><g opacity="0"><g clip-path="url(#b)"><rect width="137.334" height="160.224" fill="#0a0a0a"/></g></g><path d="M504.45,978.1c7.759,17.7,2.426,26.174,0,28.829.664-11.731-2.815-12.795-2.506-8.675s-1.431,16.114-5.7,21.367c.252-9.327-2.049-8.892-3.147-9.007-.858-.069-3.124,3.525-2.461,10.426-8.492-5.333-7.576-16.652-5.333-21.825s-2.06-8.32-5.333,2.186c-3.88-8.732,2.186-23.29,2.186-23.29Z" transform="translate(-423.892 -866.161)" fill="#ff2a00"/><path d="M523.294,982.485c-1.705,1.316-5.619,4.841-3.468,11.433,3.33-5.482,5.058-2.335,4.887,0s.458,7.943,2.884,10.918c-.149-5.3.332-8.56,2.483-7.256s1.1,8.08.721,11.994c4.818-3.033,4.635-12.188,3.365-15.118s4.12-5.573,5.974.389c2.2-4.955.023-9.281-4.189-12.372s-12.658,0-12.658,0" transform="translate(-459.777 -868.818)" fill="#ffb000"/><path d="M372.458,1138.578c0,2.529-.526,4.578-1.179,4.578s-1.179-2.049-1.179-4.578.526-4.578,1.179-4.578,1.179,2.049,1.179,4.578" transform="translate(-327.744 -1004.219)" fill="#ededed"/><path d="M349.671,1161.5c2.186,0,3.971.641,3.971,1.431s-1.774,1.431-3.971,1.431-3.971-.641-3.971-1.431,1.774-1.431,3.971-1.431" transform="translate(-306.136 -1028.572)" fill="#ededed"/><path d="M411.876,1231.988a1.488,1.488,0,1,1-1.488-1.488,1.488,1.488,0,0,1,1.488,1.488" transform="translate(-362.103 -1089.675)" fill="#ededed"/><path d="M718.076,1370.788a1.488,1.488,0,1,1-1.488-1.488,1.488,1.488,0,0,1,1.488,1.488" transform="translate(-633.26 -1212.59)" fill="#ededed"/><path d="M763.752,1255.826a4.326,4.326,0,0,1-4.326-4.326,4.326,4.326,0,1,0,0,8.652,4.326,4.326,0,0,1,4.326-4.326" transform="translate(-668.682 -1108.271)" fill="#ededed"/><path d="M460.053,178.531V159.213a42.458,42.458,0,0,1-7.885-.813q-.607,1.144-1.2,2.358A109.124,109.124,0,0,0,442.6,185a71.045,71.045,0,0,0,9.694,1.74,8.343,8.343,0,0,1,7.759-8.194m-2.918-17.728a.925.925,0,0,1,.046-.149.915.915,0,0,1,.069-.149l.069-.1a.916.916,0,0,1,1.648.607.682.682,0,0,1-.057.263.926.926,0,0,1-.069.149l-.069.1a.916.916,0,0,1-1.648-.6.947.947,0,0,1,.011-.114m-11.25,23.049a.916.916,0,0,1-.79.446l-.217-.023-.114-.034-.149-.069-.126-.092-.08-.08a.916.916,0,0,1,.9-1.511l.114.034.149.069.126.092.08.08a.916.916,0,0,1,.1,1.087" transform="translate(-391.946 -140.272)" fill="#e0e0e0"/><path d="M440.162,445.875c.1-4.5.492-7.53,1.2-9.27a3.05,3.05,0,0,1,2.243-2.152V409.641a8.343,8.343,0,0,1-7.691-7.279,72.323,72.323,0,0,1-10-1.762c-.355,1.717-.675,3.479-.95,5.3a94.414,94.414,0,0,0-.813,18.117c.149,3.422.446,7.027.9,10.7a19.332,19.332,0,0,1,4.315,12.589,20.132,20.132,0,0,1-.927,6.1c.252,1.064.481,1.934.641,2.564h11.4c-.252-3.983-.389-7.6-.332-10.094m.824-14.168a.916.916,0,0,1,1.087-.1l.092.069.114.1.092.126.057.1a.916.916,0,0,1-.835,1.3h-.046a.916.916,0,0,1-.423-.126l-.092-.069-.114-.1h0l-.092-.126-.057-.1a.916.916,0,0,1,.217-1.064m-12.269-28.531a.942.942,0,0,1-.034.16l-.046.114a.927.927,0,0,1-.835.526h-.126a.927.927,0,0,1-.778-.767.911.911,0,0,1-.011-.114.881.881,0,0,1,.046-.309l.046-.114a.916.916,0,0,1,1.751.366.93.93,0,0,1-.011.16" transform="translate(-375.512 -354.753)" fill="#e0e0e0"/><path d="M619.348,447.305a19.321,19.321,0,0,1,4.3-12.566c.446-3.685.755-7.29.9-10.724a94.421,94.421,0,0,0-.813-18.117c-.275-1.82-.6-3.582-.95-5.3a72.537,72.537,0,0,1-9.991,1.762,8.343,8.343,0,0,1-7.7,7.279v24.812a3.05,3.05,0,0,1,2.243,2.152c.71,1.74,1.1,4.772,1.2,9.27.057,2.38-.1,6.031-.355,10.094h11.433c.217-.813.435-1.671.652-2.586a21.057,21.057,0,0,1-.916-6.077m.732-44.645.057-.1.1-.126.114-.1.1-.069a.916.916,0,0,1,1.282,1.2l-.057.1-.1.126-.114.1-.1.069a.916.916,0,0,1-.423.126h-.034a.916.916,0,0,1-.824-1.316M607.5,433.24a.916.916,0,0,1-1.064-.217l-.069-.092-.08-.137a.939.939,0,0,1-.057-.149.916.916,0,0,1,.5-1.076.927.927,0,0,1,1.064.217l.069.092.08.137a.927.927,0,0,1,.057.149.912.912,0,0,1,.023.114.927.927,0,0,1-.526.961" transform="translate(-535.849 -354.753)" fill="#e0e0e0"/><path d="M546.893,75.445a51.959,51.959,0,0,0-3.765-5.985,17.316,17.316,0,0,0-2.289-2.6A3.186,3.186,0,0,0,539,65.9a3.142,3.142,0,0,0-1.843.961,17.12,17.12,0,0,0-2.289,2.6,51.727,51.727,0,0,0-3.765,5.974,43.6,43.6,0,0,0,15.793,0" transform="translate(-470.318 -58.358)" fill="#e0e0e0"/><path d="M627.2,901.115h11.754l1.007-6.615H627.692c-.149,2.152-.309,4.395-.492,6.615" transform="translate(-555.42 -792.129)" fill="#e0e0e0"/><path d="M473.657,894.4H461.4l1.064,6.615h11.673c-.183-2.22-.343-4.463-.492-6.615" transform="translate(-408.595 -792.04)" fill="#e0e0e0"/><path d="M605.011,159.3V178.62a8.343,8.343,0,0,1,7.759,8.194,71.241,71.241,0,0,0,9.694-1.728,109.2,109.2,0,0,0-8.366-24.228q-.6-1.213-1.2-2.358a42.448,42.448,0,0,1-7.9.813m2.289,2.632-.115.023h-.32l-.114-.023a.916.916,0,0,1,0-1.762l.114-.023h.32l.115.023a.916.916,0,0,1,0,1.762m12.188,20.76a.916.916,0,0,1,1.087.08l.08.08.092.126.069.137.034.114a.916.916,0,0,1-1.488.927l-.08-.08-.092-.126-.069-.137-.034-.114a.927.927,0,0,1,.4-1.019" transform="translate(-535.761 -140.36)" fill="#e0e0e0"/><path d="M624.1,965.47h9.922l.423-3.17H624.363c-.092,1.076-.172,2.129-.263,3.17" transform="translate(-552.675 -852.169)" fill="#e0e0e0"/><path d="M307.5,719.213a17.906,17.906,0,0,0-3.822-11.513c-10.518,7.05-15.736,21.676-15.977,44.668a.572.572,0,0,0,1.11.183,77,77,0,0,1,6.832-15.473,39.994,39.994,0,0,1,11-12.131,20.371,20.371,0,0,0,.847-5.734" transform="translate(-254.774 -626.707)" fill="#e0e0e0"/><path d="M487.5,962.3l.515,3.17h9.613c-.092-1.041-.183-2.094-.263-3.17Z" transform="translate(-431.708 -852.169)" fill="#e0e0e0"/><path d="M551.674,351.387a7.187,7.187,0,1,0-7.187,7.187,7.187,7.187,0,0,0,7.187-7.187M544.487,358a6.615,6.615,0,1,1,6.615-6.615A6.615,6.615,0,0,1,544.487,358" transform="translate(-475.809 -304.808)" fill="#e0e0e0"/><path d="M580.563,716.346C580.334,706,578.549,706,577.691,706s-2.644,0-2.884,10.346c-.195,8.572,2.026,30.511,2.472,34.814a.412.412,0,0,0,.824,0c.446-4.406,2.655-26.815,2.472-34.814" transform="translate(-509.012 -625.202)" fill="#e0e0e0"/><path d="M534.923,73.852a42.3,42.3,0,0,0,7.965-.732l.458-.092-.229-.412a51.149,51.149,0,0,0-3.788-6.02,17.927,17.927,0,0,0-2.335-2.644,3.615,3.615,0,0,0-2.071-1.053,3.356,3.356,0,0,0-2.071,1.053,16.811,16.811,0,0,0-2.335,2.644,50.613,50.613,0,0,0-3.788,6.02l-.229.412.458.092a42.3,42.3,0,0,0,7.965.732" transform="translate(-466.245 -55.701)" fill="#ff2139"/><path d="M624.426,891.72c-.137,2-.3,4.223-.492,6.615l-.034.366h12.429l1.11-7.3h-12.99Z" transform="translate(-552.498 -789.383)" fill="#181b1f"/><path d="M471.382,898.335c-.195-2.38-.355-4.6-.492-6.615l-.023-.32H457.9l1.179,7.3h12.337Z" transform="translate(-405.495 -789.383)" fill="#181b1f"/><path d="M621.1,959.609c-.092,1.076-.172,2.129-.263,3.17l-.034.378h10.6l.515-3.857H621.12Z" transform="translate(-549.752 -849.512)" fill="#181b1f"/><path d="M301.383,703.852l-.195-.252-.263.183c-10.621,7.13-15.9,21.836-16.125,44.954a.916.916,0,0,0,1.785.3,76.938,76.938,0,0,1,6.809-15.4A39.474,39.474,0,0,1,304.3,721.6l.092-.069.034-.1a20.737,20.737,0,0,0,.87-5.837,18.257,18.257,0,0,0-3.891-11.731" transform="translate(-252.205 -623.076)" fill="#ff2139"/><path d="M494.509,959.52l-.023-.32H483.9l.618,3.857H494.8l-.034-.378c-.092-1.1-.183-2.163-.263-3.17" transform="translate(-428.52 -849.424)" fill="#181b1f"/><path d="M578.339,713.676c-.1-4.566-.515-7.576-1.236-9.19s-1.522-1.5-1.98-1.5-1.316,0-1.98,1.5-1.133,4.624-1.236,9.19c-.195,8.583,2.026,30.545,2.472,34.86a.755.755,0,0,0,1.5,0c.446-4.418,2.655-26.837,2.472-34.86" transform="translate(-506.444 -622.531)" fill="#ff2139"/><path d="M743.417,707.511a17.905,17.905,0,0,0-3.822,11.513,20.37,20.37,0,0,0,.847,5.734,39.994,39.994,0,0,1,11,12.131,77.3,77.3,0,0,1,6.832,15.473.57.57,0,0,0,1.11-.195c-.229-22.992-5.459-37.607-15.977-44.668" transform="translate(-654.951 -626.53)" fill="#ff2139"/><path d="M461.436,188.449c-.263-1.751-.584-3.548-.95-5.322l-.069-.355-.092-.446-.069-.32a109.987,109.987,0,0,0-8.389-24.308q-.584-1.185-1.2-2.369l-.114-.229-.252.046a42.139,42.139,0,0,1-7.828.8h-1.133a42.14,42.14,0,0,1-7.828-.8l-.252-.046-.114.229q-.618,1.167-1.2,2.369a110.62,110.62,0,0,0-8.4,24.32l-.069.32-.092.446-.069.355c-.366,1.774-.687,3.559-.95,5.31a95.142,95.142,0,0,0-.813,18.185c.149,3.433.458,7.038.9,10.724v.1l.069.08a19.032,19.032,0,0,1,4.234,12.372,20.2,20.2,0,0,1-.9,6l-.034.092.023.092q.326,1.356.652,2.575l.069.252h12.005l-.023-.366c-.275-4.418-.389-7.805-.332-10.071.1-4.452.492-7.439,1.179-9.144a2.725,2.725,0,0,1,1.991-1.946l.824-.034.195.034a2.725,2.725,0,0,1,1.991,1.946c.687,1.705,1.076,4.692,1.179,9.144.046,2.152-.069,5.539-.355,10.071l-.023.366h12.051l.069-.252c.217-.813.435-1.682.652-2.586l.023-.092-.034-.092a20.722,20.722,0,0,1-.9-5.974,19.29,19.29,0,0,1,4.223-12.349l.057-.08v-.1c.446-3.685.755-7.3.9-10.746a95.19,95.19,0,0,0-.813-18.185m-11.57-3.811-.034.275a8,8,0,0,1-7.382,6.981h-1.1a8,8,0,0,1-7.382-6.97l-.034-.275-.034-.458v-.389a8.047,8.047,0,0,1,7.439-7.862h1.1a8.034,8.034,0,0,1,7.439,7.851v.378Z" transform="translate(-373.21 -137.35)" fill="#e0e0e0"/><g transform="translate(55.575 11.181)" opacity="0.4"><g clip-path="url(#d)"><path d="M497.572,97.789a290.272,290.272,0,0,0-4.063,28.932c-.069.721-.824.916-1.19,1.5a9.512,9.512,0,0,0-1.419,2.907,9.36,9.36,0,0,0,.252,3.353c.24.8,1.522,2.049,1.465,2.907-1.133,16.1-1.465,34.528.32,51.363h-4.349s-10.643-56.158,8.08-91.293a.482.482,0,1,1,.9.332" transform="translate(-485.578 -97.205)" fill="#fff"/></g></g><g transform="translate(68.69 6.958)" opacity="0.15"><g clip-path="url(#e)"><path d="M600.2,60.8c1.511,1.614,2.243,14.569,2.163,32.09a8.571,8.571,0,0,1,3.3,2.071,12.674,12.674,0,0,1,2.529,4.887,14.318,14.318,0,0,1-1.122,4.372,11.6,11.6,0,0,1-2,2.243,10.619,10.619,0,0,1-2.941,1.247c-.229,8.412-.6,17.35-1.133,26.254,2.93,1.259,3.5,14.248,2.312,21.447h12.452s.32-1.087.8-3.067c.217-.9-.938-2.884-.675-4.12s-.366-3.868-.057-5.608c.195-1.087.732-1.762.916-2.976.16-1.019,1.282-2.094,1.419-3.2s1.316-.71,1.431-1.785c2.255-20.589,1.362-52.118-19.387-73.852" transform="translate(-600.2 -60.8)" fill="#0a0a0a"/></g></g><path d="M544.784,342.51a.286.286,0,0,0-.309-.252l-.275.023-.492.046v-.172a8.354,8.354,0,1,0-.034.744l.584-.057.275-.023a.286.286,0,0,0,.252-.309" transform="translate(-466.686 -295.587)"/><g transform="translate(61.205 39.106)" clip-path="url(#f)"><rect width="14.947" height="14.952" fill="url(#g)"/></g><g transform="translate(62.064 39.964)"><path d="M548.915,349.2a6.615,6.615,0,1,0,6.615,6.615,6.615,6.615,0,0,0-6.615-6.615" transform="translate(-542.3 -349.2)"/><path d="M558.213,359.7a5.413,5.413,0,1,0,5.413,5.413,5.413,5.413,0,0,0-5.413-5.413" transform="translate(-551.598 -358.498)" fill="#181b1f"/></g><g transform="translate(63.272 41.166)" clip-path="url(#h)"><rect width="11.628" height="11.957" transform="matrix(0.378, -0.926, 0.926, 0.378, -3.153, 7.492)" fill="url(#i)"/></g><g transform="translate(31.198 5.825)"><g transform="translate(37.435 75.545)" opacity="0.15"><g clip-path="url(#j)"><path d="M601.01,711s-1.637,34.666-1.225,43.7c2.3-2.712,3.079-27.261,3.079-27.261s.71-14.638-1.854-16.434" transform="translate(-599.717 -711)" fill="#0a0a0a"/></g></g><g transform="translate(58.367 75.946)" opacity="0.15"><g clip-path="url(#k)"><path d="M782.6,714.5s11.857,12.795,14.26,43.741c.961-11.479.023-17.8.023-17.8l-3.616-11.593-5.3-9.568Z" transform="translate(-782.6 -714.5)" fill="#0a0a0a"/></g></g><g transform="translate(28.005 96.191)" opacity="0.1"><g clip-path="url(#l)"><path d="M517.3,891.4h2.907l.824,7.313h.881l.423,4.692h-2.518l-.538-4.383-1.213-.206Z" transform="translate(-517.3 -891.4)" fill="#fff"/></g></g><g transform="translate(42.185 96.191)" opacity="0.4"><g clip-path="url(#m)"><path d="M652.759,891.4h-8.824l-.916,7.313h-1.453l-.366,4.692h8.045l.744-4.383,1.694-.206Z" transform="translate(-641.2 -891.4)" fill="#0a0a0a"/></g></g><g transform="translate(3.548 79.036)" opacity="0.4"><g clip-path="url(#n)"><path d="M315.514,742.26c-2.266,2.049-9.854,9.327-11.914,33.029,4.99-17.041,7.485-24.858,13.8-30.568,2.483-2.243.378-4.521-1.888-2.461" transform="translate(-303.6 -741.459)" fill="#fff"/></g></g><g transform="translate(35.982 78.704)" opacity="0.4"><g clip-path="url(#o)"><path d="M587.44,739.348c.183-1.041,1.236-.9,1.11,0-1.019,7.542-.732,21.676-.183,35.387-1.041-13.63-1.831-27.776-.927-35.387" transform="translate(-587.039 -738.615)" fill="#fff"/></g></g><g transform="translate(55.163 85.639)" opacity="0.4"><g clip-path="url(#p)"><path d="M757.489,799.7a1.785,1.785,0,0,0-2.9,1.453,7.853,7.853,0,0,0,.675,3.216c1.247,2.415,8.549,5.036,15.3,22.157-4.063-17.281-9.762-24.159-13.081-26.826" transform="translate(-754.593 -799.299)" fill="#fff"/></g></g><g transform="translate(33.166 36.439)" opacity="0.4"><g clip-path="url(#q)"><path d="M564.924,372.991a8.08,8.08,0,0,1,3.353-3.376,4.315,4.315,0,0,0-5.7,5.436,3.834,3.834,0,0,0,2.346-2.06" transform="translate(-562.337 -369.295)" fill="#fff"/></g></g><g transform="translate(3.17 85.33)" opacity="0.15"><g clip-path="url(#r)"><path d="M319,796.5s-15.359,10.14-18.7,34.8c6.832-20.875,17.831-27.616,17.831-27.616Z" transform="translate(-300.3 -796.5)" fill="#0a0a0a"/></g></g><path d="M736.942,398.481H737l1.35-.275a.287.287,0,0,0-.126-.561l-1.328.263a.288.288,0,1,0,.057.572" transform="translate(-683.53 -357.956)"/><path d="M701.261,404.422h.034l1.362-.172a.289.289,0,0,0-.08-.572l-1.362.172a.287.287,0,1,0,.034.572" transform="translate(-651.923 -363.302)"/><path d="M703.273,761.384a.286.286,0,0,0,.023.572h.023l1.373-.092a.287.287,0,1,0-.046-.572l-1.373.092" transform="translate(-653.741 -679.991)"/><path d="M667.33,763.565a.286.286,0,1,0,.011.572h.011l1.373-.069a.287.287,0,0,0-.034-.572l-1.373.069" transform="translate(-621.907 -681.942)"/><path d="M532.469,764.344,531.1,764.3a.286.286,0,0,0-.023.572l1.373.046h.011a.286.286,0,1,0,.011-.572" transform="translate(-501.248 -682.653)"/><path d="M495.073,763.07l1.373.08h.011a.286.286,0,1,0,.011-.572l-1.373-.08a.281.281,0,0,0-.034.561" transform="translate(-469.368 -681.059)"/><path d="M505.3,407.061l1.362.137h.034a.286.286,0,1,0,.023-.572l-1.362-.137a.288.288,0,0,0-.057.572" transform="translate(-478.436 -365.792)"/><path d="M469.382,402.474l1.362.195h.034a.287.287,0,1,0,.034-.572l-1.339-.183a.286.286,0,1,0-.092.561" transform="translate(-446.618 -361.732)"/><path d="M343.774,143.017a41.47,41.47,0,0,0-5.242-10.758,29.481,29.481,0,0,0-7.553-7.519c.423-3.536.71-7,.847-10.323A96.972,96.972,0,0,0,331,95.969a110.973,110.973,0,0,0-9.716-31.152,63.183,63.183,0,0,0-5.7-9.671,18.289,18.289,0,0,0-2.529-2.85,4.615,4.615,0,0,0-2.976-1.4h-.011a4.615,4.615,0,0,0-2.976,1.4,19.48,19.48,0,0,0-2.529,2.85,63.01,63.01,0,0,0-5.7,9.659,110.544,110.544,0,0,0-9.7,31.152,96.04,96.04,0,0,0-.824,18.449c.149,3.319.435,6.787.847,10.323a29.481,29.481,0,0,0-7.542,7.508,41.485,41.485,0,0,0-5.253,10.758c-2.438,7.37-3.685,16.434-3.788,27.707a2.289,2.289,0,0,0,4.452.755c3.033-9.007,7.313-19.021,15.977-25.842l.16.607-.183.183a2,2,0,0,0-.458,1.625l.973,6.043a2,2,0,0,0,1.98,1.682h.011l.423,2.621a2,2,0,0,0,1.98,1.682h8.938c.458,5.15.9,9.465,1.076,11.124a2.129,2.129,0,0,0,4.234,0c.172-1.682.6-5.985,1.053-11.124h9.236a2.014,2.014,0,0,0,1.991-1.74l.343-2.575a1.991,1.991,0,0,0,1.843-1.694l.916-6.043a2,2,0,0,0-.458-1.614l-.172-.172.16-.618c8.675,6.809,12.944,16.835,15.988,25.842a2.289,2.289,0,0,0,4.452-.755c-.114-11.273-1.35-20.337-3.788-27.707M306.407,56.519a16.723,16.723,0,0,1,2.209-2.506,3.126,3.126,0,0,1,1.465-.824c.206,0,.652.1,1.465.824a15.351,15.351,0,0,1,2.209,2.506,50.7,50.7,0,0,1,3.628,5.745,43.843,43.843,0,0,1-14.6.011,50.708,50.708,0,0,1,3.628-5.745M291.426,96.312c.275-1.8.584-3.548.938-5.242l.275.069h.057a.286.286,0,0,0,.057-.561l-.286-.069a108,108,0,0,1,8.446-24.686q.629-1.293,1.27-2.495a44.752,44.752,0,0,0,15.748,0q.641,1.2,1.27,2.495a108.018,108.018,0,0,1,9.5,30.488,94.224,94.224,0,0,1,.8,18c-.149,3.365-.446,6.9-.881,10.518a19.9,19.9,0,0,0-4.326,12.806,22.029,22.029,0,0,0,.9,6.1c-.172.687-.332,1.35-.5,1.991H314.35c.24-3.834.378-7.256.32-9.533-.023-1.076-.069-2.06-.126-2.976l.744-.023a.286.286,0,1,0-.023-.572l-.767.023a20.267,20.267,0,0,0-1.087-5.928c-.7-1.728-1.8-2.564-3.353-2.564s-2.655.835-3.353,2.564-1.133,4.841-1.247,9.465c-.057,2.38.069,5.78.3,9.533H295.432c-.137-.538-.309-1.2-.492-1.968a22.02,22.02,0,0,0,.9-6.111,21.161,21.161,0,0,0-.515-4.921l.229.023h.023a.286.286,0,1,0,.023-.572l-.423-.034a19.421,19.421,0,0,0-3.674-7.313c-.435-3.605-.732-7.13-.881-10.495a94.179,94.179,0,0,1,.8-18m-9.636,58.825a78.13,78.13,0,0,0-6.89,15.587c.229-22.454,5.23-36.84,15.278-43.9a17.4,17.4,0,0,1,3.376,10.689,20.315,20.315,0,0,1-.71,5.23,1.157,1.157,0,0,0-.195.309,40.554,40.554,0,0,0-10.861,12.085m24.137-7.141c.126,1.8.263,3.639.4,5.47H295.764l-.881-5.47Zm-7.736,9.8-.332-2.026h8.664q.08,1.019.172,2.026ZM310.081,169.4c-.664-6.592-2.483-25.407-2.3-33.166.092-4.223.458-7.141,1.076-8.664.458-1.133.881-1.133,1.225-1.133s.767,0,1.225,1.133c.618,1.522.984,4.429,1.076,8.664.172,7.256-1.648,26.46-2.312,33.166M322.235,157.8h-8.789l.172-2.026h8.892Zm2.209-4.315H313.8c.149-1.831.286-3.685.4-5.47h11.078Zm13.939,1.659a40.643,40.643,0,0,0-11-12.188,20.107,20.107,0,0,1-.767-5.436,17.4,17.4,0,0,1,3.376-10.689c10.06,7.061,15.061,21.436,15.29,43.9a78.129,78.129,0,0,0-6.89-15.587" transform="translate(-272.6 -50.9)"/><path d="M523.246,475.823l-.252-.229a.538.538,0,0,1-.195-.366.515.515,0,0,1,.16-.378l.675-.755A.515.515,0,0,1,524,473.9a.538.538,0,0,1,.378.16l.252.229a.526.526,0,0,1,.195.366.515.515,0,0,1-.16.378l-.069.069a.057.057,0,0,1-.092.011l-.206-.183a.057.057,0,0,1,0-.1l.057-.057a.206.206,0,0,0,.069-.137.2.2,0,0,0-.08-.126l-.16-.137a.2.2,0,0,0-.137-.069.206.206,0,0,0-.126.08l-.652.721a.206.206,0,0,0-.069.137.194.194,0,0,0,.08.126l.16.137a.2.2,0,0,0,.137.069.206.206,0,0,0,.126-.08l.137-.149a.034.034,0,0,0,0-.046l-.137-.126a.057.057,0,0,1,0-.092l.149-.16a.057.057,0,0,1,.092,0l.412.378a.069.069,0,0,1,0,.1l-.355.4a.515.515,0,0,1-.366.195.527.527,0,0,1-.378-.16" transform="translate(-494.166 -425.49)" fill="#737373"/><path d="M533.653,485.535l-.252-.172c-.034-.023-.034-.046,0-.08l1.476-1.339a.092.092,0,0,1,.114,0l.355.229a.092.092,0,0,1,.046.114l-.629,1.888q-.023.069-.069.034l-.252-.172-.034-.034a.115.115,0,0,1,.011-.057l.114-.343-.526-.343-.263.24-.046.034h-.046m1.3-1.144-.7.652.4.263.309-.9Z" transform="translate(-503.531 -434.367)" fill="#737373"/><path d="M551.343,490.6l.435.183a.057.057,0,0,1,.034.092l-.744,1.774a.057.057,0,0,1-.092.034l-.24-.1a.057.057,0,0,1-.034-.092l.6-1.4h-.011l-.721.858a.08.08,0,0,1-.1.023l-.252-.1a.08.08,0,0,1-.046-.092l.114-1.122h-.011l-.6,1.408-.034.046h-.057l-.24-.1a.057.057,0,0,1-.034-.092l.744-1.774a.057.057,0,0,1,.092-.034l.435.183a.057.057,0,0,1,.034.069l-.126,1.179h.023l.755-.9a.057.057,0,0,1,.069-.023" transform="translate(-517.627 -439.83)" fill="#737373"/><path d="M571.226,499.2l-1.019-.24a.057.057,0,0,1-.046-.08l.435-1.877a.057.057,0,0,1,.08-.046l1.019.24a.057.057,0,0,1,.046.08l-.046.217a.057.057,0,0,1-.08.046l-.652-.149c-.023-.011-.046,0-.046.023l-.092.4c0,.023,0,.034.034.046l.538.126a.057.057,0,0,1,.046.08l-.046.217a.057.057,0,0,1-.08.046l-.538-.126c-.023-.011-.034,0-.046.023l-.1.435q-.012.034.034.046l.652.149a.057.057,0,0,1,.046.08l-.046.217a.057.057,0,0,1-.08.046" transform="translate(-536.103 -445.908)" fill="#737373"/><path d="M585.223,501.763l-.275-.023a.057.057,0,0,1-.057-.069l.16-1.923a.057.057,0,0,1,.069-.057l.755.069a.538.538,0,0,1,.378.172.515.515,0,0,1,.1.4l-.023.252a.473.473,0,0,1-.32.458h0l.286.744q.023.08-.057.069l-.263-.023-.08-.023a.092.092,0,0,1-.034-.057l-.263-.721-.217-.023a.045.045,0,0,0-.046.034l-.057.652a.057.057,0,0,1-.069.057m.195-1.076.309.023a.217.217,0,0,0,.149-.034.183.183,0,0,0,.057-.137l.023-.252a.2.2,0,0,0-.034-.149.218.218,0,0,0-.149-.057l-.309-.023a.034.034,0,0,0-.034.034l-.046.549a.034.034,0,0,0,.034.034" transform="translate(-549.15 -448.328)" fill="#737373"/><path d="M601.072,502.008l-.275.023a.057.057,0,0,1-.069-.057l-.137-1.923a.057.057,0,0,1,.057-.069l.275-.023a.057.057,0,0,1,.069.057l.057.755q0,.034.046.034l.538-.034a.034.034,0,0,0,.034-.034l-.057-.755a.057.057,0,0,1,.057-.069l.275-.023a.057.057,0,0,1,.069.057l.137,1.923a.057.057,0,0,1-.057.069l-.275.023a.057.057,0,0,1-.069-.057l-.057-.744a.034.034,0,0,0-.034-.034l-.538.034a.03.03,0,0,0-.034.034l.057.744a.057.057,0,0,1-.057.069" transform="translate(-563.053 -448.505)" fill="#737373"/><path d="M618.855,499.529l-.3.069q-.057.011-.057-.057l.057-1.991a.092.092,0,0,1,.08-.092l.412-.1a.092.092,0,0,1,.114.046l.938,1.762q.034.057-.023.069l-.3.069h-.046l-.034-.046-.172-.32-.607.149v.366a.1.1,0,0,1-.011.057l-.046.023m.069-1.74v.95l.458-.1-.435-.847Z" transform="translate(-578.913 -446.255)" fill="#737373"/><path d="M631.11,494.25l-.023-.057a.057.057,0,0,1,.034-.092l.252-.1a.057.057,0,0,1,.092.034v.023a.229.229,0,0,0,.1.137.263.263,0,0,0,.183-.023l.137-.057a.183.183,0,0,0,.126-.3v-.034a.16.16,0,0,0-.126-.1.4.4,0,0,0-.195.011l-.24.057-.252.023a.378.378,0,0,1-.24-.092.63.63,0,0,1-.195-.275l-.046-.1a.515.515,0,0,1-.011-.412.538.538,0,0,1,.309-.275l.3-.126a.538.538,0,0,1,.412-.023.515.515,0,0,1,.275.309l.023.057a.057.057,0,0,1-.034.092l-.252.1a.057.057,0,0,1-.092-.034v-.023a.229.229,0,0,0-.1-.137.263.263,0,0,0-.183.023l-.114.046a.24.24,0,0,0-.149.114.286.286,0,0,0,.034.195l.023.057q.057.137.309.057a1.625,1.625,0,0,1,.492-.08.412.412,0,0,1,.24.092.6.6,0,0,1,.183.263l.046.1a.515.515,0,0,1,.011.412.538.538,0,0,1-.309.275l-.32.126a.538.538,0,0,1-.412.023.515.515,0,0,1-.275-.309" transform="translate(-589.693 -441.902)" fill="#737373"/><path d="M644.4,486.366l-.229.137a.057.057,0,0,1-.092-.023l-1-1.648a.057.057,0,0,1,.023-.092l.229-.137a.057.057,0,0,1,.092.023l.389.641a.034.034,0,0,0,.046.011l.458-.275a.034.034,0,0,0,.011-.046l-.389-.641a.057.057,0,0,1,.023-.092l.229-.137a.057.057,0,0,1,.092.023l1,1.648a.057.057,0,0,1-.023.092l-.229.137a.057.057,0,0,1-.092-.023l-.389-.641a.034.034,0,0,0-.046-.011l-.458.275a.034.034,0,0,0-.011.046l.389.641a.057.057,0,0,1-.023.092" transform="translate(-600.675 -434.5)" fill="#737373"/><path d="M661.264,475.727l-.172-.195a.091.091,0,0,1-.023-.092l.092-.332a.251.251,0,0,1,.069-.114l.195-.172a.057.057,0,0,1,.092,0l1.282,1.431a.057.057,0,0,1,0,.092l-.206.183a.057.057,0,0,1-.092,0l-1.041-1.156-.114.343q-.034.069-.08.011" transform="translate(-616.607 -426.287)" fill="#737373"/></g></g></g></g></svg>