<svg xmlns="http://www.w3.org/2000/svg" width="30" height="30" viewBox="0 0 30 30"><path d="M15,30A15,15,0,0,1,4.393,4.393,15,15,0,1,1,25.606,25.607,14.9,14.9,0,0,1,15,30Zm-.252-9.514h0l4.686,3.44a.977.977,0,0,0,1.536-.589L24.075,8.5a.916.916,0,0,0-.187-.779.928.928,0,0,0-1.068-.284L4.638,14.519a.663.663,0,0,0,.053,1.254l4.62,1.364,1.724,5.472a.793.793,0,0,0,1.324.316l2.388-2.438Zm-3.216.967a.084.084,0,0,1-.083-.061l-1.338-4.311a.454.454,0,0,1,.194-.52l9.973-6.186a.223.223,0,0,1,.119-.036.225.225,0,0,1,.206.15.209.209,0,0,1-.063.238L12.1,18.2a.444.444,0,0,0-.15.289l-.326,2.891A.086.086,0,0,1,11.531,21.453Z" transform="translate(0 0)"></path></svg>