<svg xmlns="http://www.w3.org/2000/svg" width="30" height="30" viewBox="0 0 30 30"><path d="M15,30A15,15,0,0,1,4.393,4.393,15,15,0,1,1,25.607,25.607,14.9,14.9,0,0,1,15,30ZM5.447,22.9h0a12.283,12.283,0,0,0,6.638,1.945A12.2,12.2,0,0,0,24.406,12.525c0-.183,0-.366-.013-.561a8.755,8.755,0,0,0,2.161-2.241,8.68,8.68,0,0,1-2.488.681,4.328,4.328,0,0,0,1.9-2.4,8.654,8.654,0,0,1-2.75,1.051,4.335,4.335,0,0,0-7.379,3.949A12.332,12.332,0,0,1,6.916,8.484a4.334,4.334,0,0,0,1.34,5.782,4.336,4.336,0,0,1-1.962-.542v.055a4.341,4.341,0,0,0,3.474,4.246,4.323,4.323,0,0,1-1.956.074,4.329,4.329,0,0,0,4.046,3.008A8.753,8.753,0,0,1,5.447,22.9Z"></path></svg>