<svg xmlns="http://www.w3.org/2000/svg" xmlns:xlink="http://www.w3.org/1999/xlink" width="20" height="14" viewBox="0 0 20 14"><defs><style>.a,.c{fill:#fff;}.a{stroke:#737373;}.b{clip-path:url(#a);}.d{fill:#cf142b;}.e{fill:#00247d;}</style><clipPath id="a"><rect class="a" width="20" height="14" transform="translate(133 175)"/></clipPath></defs><g class="b" transform="translate(-133 -175)"><g transform="translate(143 182)"><g transform="translate(-14 -7)"><rect class="c" width="27.981" height="13.998"/><path class="d" d="M12.591,0V5.6H0V8.391H12.591V14h2.8V8.391H27.981V5.6H15.391V0Z"/><path class="e" d="M174.9,0V4.527L183.963,0Z" transform="translate(-158.576)"/><path class="e" d="M174.9,105.936h9.063L174.9,101.4Z" transform="translate(-158.576 -91.936)"/><path class="e" d="M27.8,105.936h9.063V101.4Z" transform="translate(-25.205 -91.936)"/><path class="e" d="M27.8,0l9.063,4.527V0Z" transform="translate(-25.205)"/><path class="e" d="M0,17.269H6.729L0,13.9Z" transform="translate(0 -12.603)"/><path class="e" d="M227.8,17.269h6.72V13.9Z" transform="translate(-206.539 -12.603)"/><path class="e" d="M227.8,100l6.72,3.36V100Z" transform="translate(-206.539 -90.667)"/><path class="e" d="M0,100v3.36L6.729,100Z" transform="translate(0 -90.667)"/><path class="d" d="M192.715,0,183.4,4.667h1.559L194.282,0Z" transform="translate(-166.283)"/><path class="d" d="M10.864,100H9.315L0,104.667H1.559L10.883,100Z" transform="translate(0 -90.667)"/><path class="d" d="M0,0V.784L7.775,4.667H9.324Z"/><path class="d" d="M199.9,100l9.324,4.667v-.784L201.449,100Z" transform="translate(-181.242 -90.667)"/></g></g></g></svg>