<svg xmlns="http://www.w3.org/2000/svg" xmlns:xlink="http://www.w3.org/1999/xlink" width="20" height="14" viewBox="0 0 20 14"><defs><style>.a,.d{fill:#fff;}.a{stroke:#737373;}.b{fill:none;}.c{clip-path:url(#a);}.e{clip-path:url(#b);}.f{fill:#cd2e3a;}.g{fill:#0047a0;}</style><clipPath id="a"><rect class="a" width="20" height="14" transform="translate(133 175)"/></clipPath><clipPath id="b"><rect class="b" width="21" height="14"/></clipPath></defs><g class="c" transform="translate(-133 -175)"><g transform="translate(143 182)"><g transform="translate(-10.5 -7)"><rect class="d" width="21" height="14"/><g class="e"><path class="f" d="M300.588,151.531a3.547,3.547,0,0,1,4.883-.965,3.454,3.454,0,0,1,.977,4.825,3.547,3.547,0,0,1-4.883.965,3.454,3.454,0,0,1-.976-4.824" transform="translate(-292.955 -146.503)"/><path class="g" d="M300.579,216.8a1.727,1.727,0,0,0,.488,2.412,1.774,1.774,0,0,0,2.441-.482,1.773,1.773,0,0,1,2.441-.483,1.727,1.727,0,0,1,.488,2.412,3.547,3.547,0,0,1-4.883.965,3.454,3.454,0,0,1-.977-4.825" transform="translate(-292.945 -211.769)"/><path d="M139.953,61.482l-.488-.322,1.953-2.895.488.322ZM139.221,61l-.488-.322,1.953-2.895.488.322Zm-.732-.482L138,60.195l1.953-2.895.488.322Z" transform="translate(-134.761 -55.971)"/><path d="M597.553,366.582l-.488-.322,1.953-2.895.488.322Zm-.732-.482-.488-.322,1.953-2.895.488.322Zm-.732-.482-.488-.322,1.953-2.895.488.322Z" transform="translate(-581.62 -353.995)"/><path d="M139.953,366.582,138,363.687l.488-.322,1.953,2.895Zm.732-.482-1.953-2.895.488-.322,1.953,2.895Zm.732-.482-1.953-2.895.488-.322,1.953,2.895Z" transform="translate(-134.761 -353.995)"/><path d="M597.553,61.482,595.6,58.587l.488-.322,1.953,2.895Zm.732-.482L596.332,58.1l.488-.322,1.953,2.895Zm.732-.482-1.953-2.895.488-.322,1.953,2.895Z" transform="translate(-581.62 -55.971)"/><path class="d" d="M202.362,119.282l-.162-.241.732-.482.162.241Zm9.887-6.513-.162-.241.854-.564.162.241Zm1.587-1.046-.162-.241.732-.482.162.241Z" transform="translate(-197.454 -108.426)"/><rect class="d" width="0.307" height="2.925" transform="translate(14.632 9.814) rotate(-56.3)"/></g></g></g></g></svg>