<svg xmlns="http://www.w3.org/2000/svg" xmlns:xlink="http://www.w3.org/1999/xlink" width="1920" height="703.056" viewBox="0 0 1920 703.056"><defs><style>.a{fill:#fff;stroke:#707070;}.b{clip-path:url(#a);}.c{fill:url(#b);}.d{fill:#7d91a5;}.e{fill:#43515f;}.f{fill:#8399af;}</style><clipPath id="a"><rect class="a" width="1920" height="703.056" transform="translate(0 1071)"/></clipPath><linearGradient id="b" x1="0.5" x2="0.5" y2="0.395" gradientUnits="objectBoundingBox"><stop offset="0" stop-color="#8ea6bc"/><stop offset="1" stop-color="#6d849a"/></linearGradient></defs><g transform="translate(0 -1071)"><g class="b"><ellipse class="c" cx="1893" cy="465" rx="1893" ry="465" transform="translate(-933 1112)"/><path class="d" d="M618.82,959.667c-6.787,13.757-16.508,20.543-30.265,13.757s-19.076-28.981-12.473-42.737,20.91-15.407,34.85-8.621,14.674,23.845,7.887,37.785" transform="translate(-293.95 314.366)"/><path class="e" d="M581.446,930.162c7.337-9.171,15.774-12.473,24.945-5.136s9.354,24.945,1.834,34.116-18.342,7.887-27.513.55-6.787-20.36.55-29.531" transform="translate(-292.709 316.724)"/><path class="f" d="M543.718,1104.935c-47.69-25.312-70.067-60.346-44.572-108.036s104-63.464,151.69-38.152,51.542,75.2,26.229,122.893-85.475,48.607-133.164,23.295" transform="translate(-364.667 338.213)"/><path class="e" d="M571.581,1096.56c-43.654-2.385-71.9-20.176-69.517-63.831s54.293-81.99,97.947-79.789,63.464,37.418,61.08,81.073-46.039,64.748-89.51,62.547" transform="translate(-353.462 343.286)"/><g transform="translate(3009.035 624.353) rotate(65)"><path class="d" d="M618.82,959.667c-6.787,13.757-16.508,20.543-30.265,13.757s-19.076-28.981-12.473-42.737,20.91-15.407,34.85-8.621,14.674,23.845,7.887,37.785" transform="translate(-293.95 314.366)"/><path class="e" d="M581.446,930.162c7.337-9.171,15.774-12.473,24.945-5.136s9.354,24.945,1.834,34.116-18.342,7.887-27.513.55-6.787-20.36.55-29.531" transform="translate(-292.709 316.724)"/><path class="f" d="M543.718,1104.935c-47.69-25.312-70.067-60.346-44.572-108.036s104-63.464,151.69-38.152,51.542,75.2,26.229,122.893-85.475,48.607-133.164,23.295" transform="translate(-364.667 447.049)"/><path class="e" d="M571.581,1096.56c-43.654-2.385-71.9-20.176-69.517-63.831s54.293-81.99,97.947-79.789,63.464,37.418,61.08,81.073-46.039,64.748-89.51,62.547" transform="translate(-353.462 452.122)"/></g></g></g></svg>