<svg xmlns="http://www.w3.org/2000/svg" xmlns:xlink="http://www.w3.org/1999/xlink" width="408.058" height="463.773" viewBox="0 0 408.058 463.773"><defs><style>.a{fill:none;}.b{opacity:0.5;clip-path:url(#a);}.c{fill:#0a0a0a;}.d{clip-path:url(#b);}.e{opacity:0;}.f{clip-path:url(#c);}.g{fill:#e0e0e0;}.h{fill:#ff2139;}.i{fill:#181b1f;}.j{clip-path:url(#d);}.k{fill:url(#e);}.l{opacity:0.72;}.m{clip-path:url(#f);}.n{clip-path:url(#g);}.o{fill:url(#h);}.p{opacity:0.15;}.q{clip-path:url(#i);}.r{clip-path:url(#j);}.s{fill:#737373;}.t{clip-path:url(#k);}.u{opacity:0.4;}.v{clip-path:url(#l);}.w{fill:#fff;}.x{opacity:0.1;}.y{clip-path:url(#m);}.z{clip-path:url(#n);}.aa{clip-path:url(#o);}.ab{clip-path:url(#p);}.ac{clip-path:url(#q);}.ad{clip-path:url(#r);}.ae{clip-path:url(#s);}</style><clipPath id="a"><rect class="a" width="244.646" height="25.91"/></clipPath><clipPath id="b"><rect class="a" width="371.732" height="433.022"/></clipPath><clipPath id="c"><rect class="a" width="371.84" height="433.46"/></clipPath><clipPath id="d"><path class="a" d="M534.3,361.583A20.383,20.383,0,1,0,554.683,341.2,20.383,20.383,0,0,0,534.3,361.583" transform="translate(-534.3 -341.2)"/></clipPath><linearGradient id="e" x1="-4.057" y1="8.024" x2="-4.049" y2="8.024" gradientUnits="objectBoundingBox"><stop offset="0" stop-color="#575656"/><stop offset="1" stop-color="#2c3138"/></linearGradient><clipPath id="f"><rect class="a" width="28.252" height="25.566"/></clipPath><clipPath id="g"><path class="a" d="M563.917,371.754a29.058,29.058,0,0,1,11.927-12.081,16.356,16.356,0,0,0-25.4,20.414c4.337-.248,10.439-1.859,13.506-8.333" transform="translate(-547.677 -354.633)"/></clipPath><linearGradient id="h" x1="-6.001" y1="12.646" x2="-5.99" y2="12.646" xlink:href="#e"/><clipPath id="i"><rect class="a" width="8.767" height="118.276"/></clipPath><clipPath id="j"><rect class="a" width="39.775" height="118.384"/></clipPath><clipPath id="k"><rect class="a" width="54.8" height="256.111"/></clipPath><clipPath id="l"><rect class="a" width="32.496" height="247.819"/></clipPath><clipPath id="m"><rect class="a" width="13.661" height="32.48"/></clipPath><clipPath id="n"><rect class="a" width="31.287" height="32.48"/></clipPath><clipPath id="o"><rect class="a" width="40.395" height="91.564"/></clipPath><clipPath id="p"><rect class="a" width="4.089" height="97.763"/></clipPath><clipPath id="q"><rect class="a" width="43.245" height="73.671"/></clipPath><clipPath id="r"><rect class="a" width="16.077" height="15.563"/></clipPath><clipPath id="s"><rect class="a" width="50.618" height="94.203"/></clipPath></defs><g transform="matrix(0.996, -0.087, 0.087, 0.996, 92.194, 358.937)"><g class="b"><path class="c" d="M566.293,1184.32c22.952-2.342,53.484-3.62,85.912-3.62s62.96,1.278,85.912,3.62c16.6,1.682,36.394,4.685,36.394,9.349s-19.794,7.645-36.394,9.349c-22.952,2.342-53.484,3.62-85.912,3.62s-62.96-1.278-85.912-3.62c-16.6-1.682-36.393-4.685-36.393-9.349s19.793-7.645,36.393-9.349" transform="translate(-529.9 -1180.7)"/></g><g transform="translate(122.482 -116.821)"><g class="d" transform="translate(-185.866 -216.511)"><g transform="translate(-0.054 -0.139)"><g class="e"><g class="f"><rect class="c" width="371.84" height="433.46"/></g></g><path class="g" d="M573.849,91.735a140.638,140.638,0,0,0-10.192-16.2,46.864,46.864,0,0,0-6.2-7.032c-1.859-1.642-3.624-2.6-4.987-2.6s-3.036.9-4.987,2.6a46.347,46.347,0,0,0-6.2,7.032A140.028,140.028,0,0,0,531.1,91.7a113.409,113.409,0,0,0,21.375,1.952A113.41,113.41,0,0,0,573.849,91.7" transform="translate(-366.523 -45.347)"/><path class="g" d="M494.577,894.4H461.4l2.881,17.905h31.6c-.5-6.01-.929-12.081-1.332-17.905" transform="translate(-318.415 -617.196)"/><path class="g" d="M605.031,160.668v52.29a22.583,22.583,0,0,1,21,22.18,192.839,192.839,0,0,0,26.238-4.678,295.583,295.583,0,0,0-22.645-65.58q-1.611-3.284-3.253-6.381A114.9,114.9,0,0,1,605,160.7m6.2,7.125-.31.062h-.867l-.31-.062a2.478,2.478,0,0,1,0-4.771l.31-.062h.867l.31.062a2.478,2.478,0,0,1,0,4.771m32.991,56.194a2.478,2.478,0,0,1,2.943.217l.217.217.248.341.186.372.093.31a2.478,2.478,0,0,1-4.027,2.509l-.217-.217-.248-.341-.186-.372-.093-.31a2.509,2.509,0,0,1,1.084-2.757" transform="translate(-417.531 -109.261)"/><path class="g" d="M624.1,970.881h26.858L652.1,962.3H624.813c-.248,2.912-.465,5.762-.712,8.581" transform="translate(-430.714 -664.062)"/><path class="g" d="M341.36,738.864A48.466,48.466,0,0,0,331.014,707.7c-28.469,19.082-42.594,58.672-43.214,120.906a1.549,1.549,0,0,0,3,.5c5.855-17.409,11.741-30.7,18.494-41.882,8.271-13.661,18-24.41,29.77-32.836a55.14,55.14,0,0,0,2.292-15.52" transform="translate(-198.592 -488.332)"/><path class="g" d="M487.5,962.3l1.394,8.581h26.021c-.248-2.819-.5-5.669-.712-8.581Z" transform="translate(-336.43 -664.062)"/><path class="g" d="M576.208,363.654a19.454,19.454,0,1,0-19.454,19.454,19.454,19.454,0,0,0,19.454-19.454m-19.454,17.905a17.905,17.905,0,1,1,17.905-17.905,17.905,17.905,0,0,1-17.905,17.905" transform="translate(-370.803 -237.436)"/><path class="g" d="M590.44,734c-.651-28-5.483-28-7.806-28s-7.156,0-7.806,28c-.527,23.2,5.483,82.587,6.691,94.234a1.115,1.115,0,0,0,2.23,0c1.208-11.926,7.187-72.581,6.691-94.234" transform="translate(-396.682 -487.158)"/><path class="h" d="M549.3,92.546a114.491,114.491,0,0,0,21.56-1.983l1.239-.248-.62-1.115a138.462,138.462,0,0,0-10.254-16.294,48.53,48.53,0,0,0-6.319-7.156c-1.89-1.673-4-2.85-5.607-2.85s-3.439.929-5.607,2.85a45.507,45.507,0,0,0-6.319,7.156A137,137,0,0,0,527.12,89.2l-.62,1.115,1.239.248a114.491,114.491,0,0,0,21.56,1.983" transform="translate(-363.348 -43.276)"/><path class="i" d="M625.325,892.267c-.372,5.421-.805,11.431-1.332,17.905l-.093.991h33.642l3-19.764h-35.16Z" transform="translate(-430.576 -615.126)"/><path class="i" d="M494.423,910.173c-.527-6.443-.96-12.453-1.332-17.905l-.062-.867H457.9l3.191,19.764h33.394Z" transform="translate(-315.999 -615.126)"/><path class="i" d="M621.605,960.136c-.248,2.912-.465,5.762-.712,8.581l-.093,1.022h28.685l1.394-10.44H621.667Z" transform="translate(-428.436 -661.992)"/><path class="h" d="M329.686,704.281l-.527-.682-.712.5c-28.747,19.3-43.028,59.105-43.648,121.68a2.478,2.478,0,0,0,4.833.805c5.855-17.348,11.71-30.575,18.432-41.7,8.209-13.568,17.843-24.225,29.522-32.558l.248-.186.093-.279a56.134,56.134,0,0,0,2.354-15.8,49.416,49.416,0,0,0-10.532-31.752" transform="translate(-196.521 -485.502)"/><path class="i" d="M512.616,960.067l-.062-.867H483.9l1.673,10.439h27.818l-.093-1.022c-.248-2.974-.5-5.855-.713-8.581" transform="translate(-333.945 -661.923)"/></g><g class="j" transform="translate(165.514 105.696)"><rect class="k" width="40.798" height="40.791" transform="translate(0)"/></g><g transform="translate(84.445 15.768)"><path class="h" d="M589.368,731.923c-.279-12.36-1.394-20.507-3.346-24.875s-4.151-4.058-5.39-4.058-3.562,0-5.359,4.058-3.067,12.515-3.346,24.875c-.527,23.233,5.483,82.68,6.691,94.358a2.045,2.045,0,0,0,4.058,0c1.208-11.957,7.187-72.643,6.691-94.358" transform="translate(-479.18 -500.984)"/><path class="i" d="M563.656,354.2a16.356,16.356,0,1,0,16.356,16.356A16.356,16.356,0,0,0,563.656,354.2" transform="translate(-462.204 -260.245)"/><path class="h" d="M749.943,707.531A48.466,48.466,0,0,0,739.6,738.694a55.139,55.139,0,0,0,2.292,15.52c11.771,8.426,21.5,19.175,29.77,32.836,6.753,11.183,12.639,24.5,18.494,41.882a1.543,1.543,0,0,0,3-.527c-.62-62.234-14.776-101.793-43.245-120.906" transform="translate(-594.93 -504.1)"/><path class="g" d="M529.7,245.369c-.712-4.74-1.58-9.6-2.571-14.4l-.186-.96-.248-1.208-.186-.867a297.707,297.707,0,0,0-22.707-65.8q-1.58-3.206-3.253-6.412l-.31-.62-.682.124a114.091,114.091,0,0,1-21.189,2.168H475.3a114.092,114.092,0,0,1-21.189-2.168l-.682-.124-.31.62q-1.673,3.16-3.253,6.412a299.421,299.421,0,0,0-22.738,65.828l-.186.867-.248,1.208-.186.96c-.991,4.8-1.859,9.634-2.571,14.374a257.537,257.537,0,0,0-2.2,49.224c.4,9.293,1.239,19.051,2.447,29.026v.279l.186.217A51.514,51.514,0,0,1,435.833,357.6a54.679,54.679,0,0,1-2.447,16.232l-.093.248.062.248q.883,3.671,1.766,6.97l.186.682h32.5l-.062-.991c-.743-11.957-1.053-21.127-.9-27.26.279-12.05,1.332-20.136,3.191-24.751,1.27-3.16,3-4.833,5.39-5.266l2.23-.093.527.093c2.385.434,4.12,2.106,5.39,5.266,1.859,4.616,2.912,12.7,3.191,24.751.124,5.824-.186,14.993-.96,27.26l-.062.991h32.619l.186-.682c.589-2.2,1.177-4.554,1.766-7l.062-.248-.093-.248a56.09,56.09,0,0,1-2.447-16.17,52.213,52.213,0,0,1,11.431-33.425l.155-.217v-.279c1.208-9.975,2.044-19.764,2.447-29.088a257.663,257.663,0,0,0-2.2-49.224" transform="translate(-375.334 -122.821)"/><path class="i" d="M573.414,360.843l-.093.743a21.653,21.653,0,0,1-19.981,18.9h-2.974a21.653,21.653,0,0,1-19.981-18.865l-.093-.743-.093-1.239v-1.053A21.781,21.781,0,0,1,550.336,337.3h2.974a21.746,21.746,0,0,1,20.135,21.251v1.022Z" transform="translate(-450.401 -248.58)"/><g class="l" transform="translate(85.096 93.955)"><g class="m"><g class="n" transform="translate(0.117 0.134)"><rect class="o" width="28.252" height="25.566" transform="translate(-0.117 -0.134)"/></g></g></g><g class="p" transform="translate(101.328 204.484)"><g class="q"><path class="c" d="M603.214,711s-4.43,93.831-3.315,118.273c6.227-7.342,8.333-73.789,8.333-73.789s1.921-39.62-5.018-44.484" transform="translate(-599.713 -711)"/></g></g><g class="p" transform="translate(157.986 205.568)"><g class="r"><path class="c" d="M782.6,714.5s32.093,34.633,38.6,118.4c2.6-31.071.062-48.17.062-48.17l-9.789-31.38-14.343-25.9Z" transform="translate(-782.6 -714.5)"/></g></g><path class="s" d="M524.008,479.1l-.682-.62a1.456,1.456,0,0,1-.527-.991,1.394,1.394,0,0,1,.434-1.022l1.828-2.045a1.394,1.394,0,0,1,.991-.527,1.455,1.455,0,0,1,1.022.434l.682.62a1.425,1.425,0,0,1,.527.991,1.394,1.394,0,0,1-.434,1.022l-.186.186a.155.155,0,0,1-.248.031l-.558-.5a.155.155,0,0,1,0-.279l.155-.155a.558.558,0,0,0,.186-.372.527.527,0,0,0-.217-.341l-.434-.372a.527.527,0,0,0-.372-.186.557.557,0,0,0-.341.217l-1.766,1.952a.557.557,0,0,0-.186.372.526.526,0,0,0,.217.341l.434.372a.527.527,0,0,0,.372.186.558.558,0,0,0,.341-.217l.372-.4a.093.093,0,0,0,0-.124l-.372-.341a.155.155,0,0,1,0-.248l.4-.434a.155.155,0,0,1,.248,0l1.115,1.022a.186.186,0,0,1,0,.279l-.96,1.084a1.394,1.394,0,0,1-.991.527,1.425,1.425,0,0,1-1.022-.434" transform="translate(-445.294 -342.864)"/><path class="s" d="M534.126,488.285l-.682-.465c-.093-.062-.093-.124,0-.217l4-3.624a.248.248,0,0,1,.31,0l.96.62a.248.248,0,0,1,.124.31l-1.7,5.111q-.062.186-.186.093l-.682-.465-.093-.093a.31.31,0,0,1,.031-.155l.31-.929-1.425-.929-.712.651-.124.093h-.124m3.531-3.1-1.89,1.766,1.084.713.836-2.447Z" transform="translate(-452.593 -349.784)"/><path class="s" d="M554.84,491.458l1.177.5a.155.155,0,0,1,.093.248L554.1,497a.155.155,0,0,1-.248.093l-.651-.279a.155.155,0,0,1-.093-.248l1.611-3.779h-.031l-1.952,2.323a.217.217,0,0,1-.279.062l-.682-.279a.217.217,0,0,1-.124-.248l.31-3.036h-.031l-1.611,3.81-.093.124h-.155l-.651-.279a.155.155,0,0,1-.093-.248l2.014-4.8a.155.155,0,0,1,.248-.093l1.177.5a.155.155,0,0,1,.093.186L552.517,494h.062l2.044-2.447a.155.155,0,0,1,.186-.062" transform="translate(-463.58 -354.041)"/><path class="s" d="M573.051,503.042l-2.757-.651a.155.155,0,0,1-.124-.217l1.177-5.08a.155.155,0,0,1,.217-.124l2.757.651a.155.155,0,0,1,.124.217l-.124.589a.155.155,0,0,1-.217.124l-1.766-.4c-.062-.031-.124,0-.124.062l-.248,1.084c0,.062,0,.093.093.124l1.456.341a.155.155,0,0,1,.124.217l-.124.589a.155.155,0,0,1-.217.124l-1.456-.341c-.062-.031-.093,0-.124.062l-.279,1.177q-.031.093.093.124l1.766.4a.155.155,0,0,1,.124.217l-.124.589a.155.155,0,0,1-.217.124" transform="translate(-477.98 -358.779)"/><path class="s" d="M585.791,505.3l-.744-.062a.155.155,0,0,1-.155-.186l.434-5.2a.155.155,0,0,1,.186-.155l2.045.186a1.456,1.456,0,0,1,1.022.465,1.394,1.394,0,0,1,.279,1.084l-.062.682a1.28,1.28,0,0,1-.867,1.239h0l.774,2.014q.062.217-.155.186l-.712-.062-.217-.062a.248.248,0,0,1-.093-.155l-.712-1.952-.589-.062a.121.121,0,0,0-.124.093l-.155,1.766a.155.155,0,0,1-.186.155m.527-2.912.836.062a.588.588,0,0,0,.4-.093.5.5,0,0,0,.155-.372l.062-.682a.526.526,0,0,0-.093-.4.588.588,0,0,0-.4-.155l-.836-.062a.093.093,0,0,0-.093.093l-.124,1.487a.093.093,0,0,0,.093.093" transform="translate(-488.15 -360.665)"/><path class="s" d="M601.894,505.624l-.743.062a.155.155,0,0,1-.186-.155l-.372-5.2a.155.155,0,0,1,.155-.186l.743-.062a.155.155,0,0,1,.186.155l.155,2.045q0,.093.124.093l1.456-.093a.093.093,0,0,0,.093-.093l-.155-2.045a.155.155,0,0,1,.155-.186l.743-.062a.155.155,0,0,1,.186.155l.372,5.2a.155.155,0,0,1-.155.186l-.744.062a.155.155,0,0,1-.186-.155l-.155-2.014a.093.093,0,0,0-.093-.093l-1.456.093a.082.082,0,0,0-.093.093l.155,2.014a.155.155,0,0,1-.155.186" transform="translate(-498.986 -360.803)"/><path class="s" d="M619.46,503.251l-.805.186q-.155.031-.155-.155l.155-5.39a.248.248,0,0,1,.217-.248l1.115-.279a.248.248,0,0,1,.31.124l2.54,4.771q.093.155-.062.186l-.805.186h-.124l-.093-.124-.465-.867-1.642.4v.991a.279.279,0,0,1-.031.155l-.124.062m.186-4.709v2.571l1.239-.279-1.177-2.292Z" transform="translate(-511.348 -359.049)"/><path class="s" d="M631.858,497.349l-.062-.155a.155.155,0,0,1,.093-.248l.682-.279a.155.155,0,0,1,.248.093v.062a.619.619,0,0,0,.279.372.713.713,0,0,0,.5-.062l.372-.155a.5.5,0,0,0,.341-.805v-.093a.434.434,0,0,0-.341-.279,1.084,1.084,0,0,0-.527.031l-.651.155-.682.062a1.022,1.022,0,0,1-.651-.248,1.7,1.7,0,0,1-.527-.743l-.124-.279a1.394,1.394,0,0,1-.031-1.115,1.456,1.456,0,0,1,.836-.743l.805-.341a1.456,1.456,0,0,1,1.115-.062,1.394,1.394,0,0,1,.743.836l.062.155a.155.155,0,0,1-.093.248l-.682.279a.155.155,0,0,1-.248-.093v-.062a.62.62,0,0,0-.279-.372.713.713,0,0,0-.5.062l-.31.124a.651.651,0,0,0-.4.31.775.775,0,0,0,.093.527l.062.155q.155.372.836.155a4.4,4.4,0,0,1,1.332-.217,1.116,1.116,0,0,1,.651.248,1.611,1.611,0,0,1,.5.712l.124.279a1.394,1.394,0,0,1,.031,1.115,1.456,1.456,0,0,1-.836.744l-.867.341a1.456,1.456,0,0,1-1.115.062,1.394,1.394,0,0,1-.744-.836" transform="translate(-519.75 -355.657)"/><path class="s" d="M646.676,490.278l-.62.372a.155.155,0,0,1-.248-.062l-2.7-4.461a.155.155,0,0,1,.062-.248l.62-.372a.155.155,0,0,1,.248.062L645.1,487.3a.093.093,0,0,0,.124.031l1.239-.743a.093.093,0,0,0,.031-.124l-1.053-1.735a.155.155,0,0,1,.062-.248l.62-.372a.155.155,0,0,1,.248.062l2.7,4.461a.155.155,0,0,1-.062.248l-.62.372a.155.155,0,0,1-.248-.062l-1.053-1.735a.093.093,0,0,0-.124-.031l-1.239.743a.093.093,0,0,0-.031.124l1.053,1.735a.155.155,0,0,1-.062.248" transform="translate(-528.31 -349.887)"/><path class="s" d="M661.6,477.309l-.465-.527a.248.248,0,0,1-.062-.248l.248-.9a.681.681,0,0,1,.186-.31l.527-.465a.155.155,0,0,1,.248,0l3.47,3.872a.155.155,0,0,1,0,.248l-.558.5a.155.155,0,0,1-.248,0l-2.819-3.129-.31.929q-.093.186-.217.031" transform="translate(-540.728 -343.486)"/><g class="p" transform="translate(101.483 3.067)"><g class="t"><path class="c" d="M600.2,60.8c4.089,4.368,6.072,39.435,5.855,86.861,3.469,1.611,7,3.067,8.922,5.607,2.261,1.828,6.877,11.09,6.846,13.227s-1.735,9.944-3.036,11.833a31.4,31.4,0,0,1-5.421,6.072c-2.509,1.8-6.01,2.757-7.961,3.377-.62,22.769-1.611,46.962-3.067,71.063,7.93,3.408,9.479,38.567,6.257,58.052h33.7s.867-2.943,2.168-8.3c.589-2.447-2.54-7.806-1.828-11.152s-.991-10.47-.155-15.179c.527-2.943,1.983-4.771,2.478-8.054.434-2.757,3.469-5.669,3.841-8.674s3.562-1.921,3.872-4.832c6.1-55.729,3.686-141.072-52.476-199.9" transform="translate(-600.2 -60.8)"/></g></g><g class="u" transform="translate(65.983 14.498)"><g class="v"><path class="w" d="M518.047,98.894c-3.1,14.5-7.559,43.028-11,78.312-.186,1.952-2.23,2.478-3.222,4.058-1.642,2.633-3.191,4.987-3.841,7.868s.4,8.147.682,9.076c.651,2.168,4.12,5.545,3.965,7.868-3.067,43.586-3.965,93.46.867,139.028H493.73S464.921,193.1,515.6,98a1.3,1.3,0,1,1,2.447.9" transform="translate(-485.583 -97.314)"/></g></g><g class="x" transform="translate(75.802 260.368)"><g class="y"><path class="w" d="M517.3,891.4h7.868l2.23,19.795h2.385l1.146,12.7h-6.815l-1.456-11.865-3.284-.557Z" transform="translate(-517.3 -891.4)"/></g></g><g class="u" transform="translate(114.184 260.368)"><g class="z"><path class="c" d="M672.487,891.4H648.6l-2.478,19.795h-3.934l-.991,12.7h21.777l2.014-11.865,4.585-.557Z" transform="translate(-641.2 -891.4)"/></g></g><g class="u" transform="translate(9.603 213.932)"><g class="aa"><path class="w" d="M335.848,743.637c-6.134,5.545-26.672,25.247-32.248,89.4,13.506-46.126,20.259-67.284,37.359-82.741,6.722-6.072,1.022-12.236-5.111-6.66" transform="translate(-303.6 -741.468)"/></g></g><g class="u" transform="translate(97.394 213.034)"><g class="ab"><path class="w" d="M588.115,740.594c.5-2.819,3.346-2.447,3,0-2.757,20.414-1.983,58.672-.5,95.783-2.819-36.894-4.956-75.183-2.509-95.783" transform="translate(-587.031 -738.612)"/></g></g><g class="u" transform="translate(149.313 231.806)"><g class="ac"><path class="w" d="M762.432,800.361a4.832,4.832,0,0,0-7.837,3.934,21.257,21.257,0,0,0,1.828,8.7c3.377,6.536,23.14,13.63,41.417,59.973-10.966-46.776-26.424-65.394-35.407-72.612" transform="translate(-754.595 -799.277)"/></g></g><g class="u" transform="translate(89.773 98.633)"><g class="ad"><path class="w" d="M569.352,379.3a21.87,21.87,0,0,1,9.076-9.138A11.679,11.679,0,0,0,563,384.878a10.377,10.377,0,0,0,6.35-5.576" transform="translate(-562.351 -369.296)"/></g></g><g class="p" transform="translate(8.581 230.97)"><g class="ae"><path class="c" d="M350.918,796.5s-41.572,27.446-50.618,94.2c18.494-56.5,48.294-74.749,48.294-74.749Z" transform="translate(-300.3 -796.5)"/></g></g><path d="M737.462,399.919h.155l3.655-.743a.778.778,0,0,0-.341-1.518l-3.593.712a.778.778,0,1,0,.155,1.549" transform="translate(-592.889 -290.227)"/><path d="M701.8,405.7h.093l3.686-.465a.782.782,0,1,0-.217-1.549l-3.686.465a.776.776,0,1,0,.093,1.549" transform="translate(-568.254 -294.394)"/><path d="M703.742,761.542a.775.775,0,1,0,.062,1.549h.062l3.717-.248a.777.777,0,1,0-.124-1.549l-3.717.248" transform="translate(-569.671 -541.229)"/><path d="M667.809,763.683a.775.775,0,1,0,.031,1.549h.031l3.717-.186a.776.776,0,0,0-.093-1.549l-3.717.186" transform="translate(-544.858 -542.75)"/><path d="M535.321,764.422,531.6,764.3a.775.775,0,1,0-.062,1.549l3.717.124h.031a.775.775,0,0,0,.031-1.549" transform="translate(-450.814 -543.304)"/><path d="M495.542,764.047l3.717.217h.031a.775.775,0,1,0,.031-1.549L495.6,762.5a.76.76,0,0,0-.093,1.518" transform="translate(-425.966 -542.061)"/><path d="M505.738,408.04l3.686.372h.093a.775.775,0,1,0,.062-1.549l-3.686-.372a.778.778,0,1,0-.155,1.549" transform="translate(-433.034 -296.335)"/><path d="M469.849,403.45l3.686.527h.093a.776.776,0,0,0,.093-1.549l-3.624-.5a.774.774,0,1,0-.248,1.518" transform="translate(-408.234 -293.17)"/><path d="M465.25,300.24a112.248,112.248,0,0,0-14.188-29.119,79.8,79.8,0,0,0-20.445-20.352c1.146-9.572,1.921-18.958,2.292-27.942a262.477,262.477,0,0,0-2.23-49.936,299.352,299.352,0,0,0-26.3-84.321,171.022,171.022,0,0,0-15.427-26.176,49.5,49.5,0,0,0-6.846-7.713c-2.881-2.54-5.514-3.779-8.054-3.779h-.031c-2.54,0-5.173,1.239-8.054,3.779a52.725,52.725,0,0,0-6.846,7.713,170.548,170.548,0,0,0-15.427,26.145,299.221,299.221,0,0,0-26.269,84.321,259.952,259.952,0,0,0-2.23,49.936c.4,8.984,1.177,18.37,2.292,27.942a79.8,79.8,0,0,0-20.414,20.321,112.289,112.289,0,0,0-14.219,29.119c-6.6,19.95-9.975,44.484-10.254,75a6.2,6.2,0,0,0,12.05,2.044c8.209-24.379,19.795-51.485,43.245-69.948l.434,1.642-.5.5a5.421,5.421,0,0,0-1.239,4.4l2.633,16.356a5.421,5.421,0,0,0,5.359,4.554h.031l1.146,7.094a5.421,5.421,0,0,0,5.359,4.554h24.194c1.239,13.94,2.447,25.618,2.912,30.11a5.762,5.762,0,0,0,11.462,0c.465-4.554,1.611-16.2,2.85-30.11h25a5.452,5.452,0,0,0,5.39-4.709l.929-6.97a5.39,5.39,0,0,0,4.987-4.585l2.478-16.356a5.422,5.422,0,0,0-1.239-4.368l-.465-.465.434-1.673c23.481,18.432,35.036,45.568,43.276,69.948a6.2,6.2,0,0,0,12.05-2.045c-.31-30.513-3.655-55.047-10.254-75M364.108,66.11a45.267,45.267,0,0,1,5.979-6.784,8.462,8.462,0,0,1,3.965-2.23c.558,0,1.766.279,3.965,2.23A41.552,41.552,0,0,1,384,66.11a137.255,137.255,0,0,1,9.82,15.551,114.588,114.588,0,0,1-19.764,1.673,114.588,114.588,0,0,1-19.764-1.642,137.255,137.255,0,0,1,9.82-15.551M323.589,173.82c.743-4.863,1.58-9.6,2.54-14.188l.743.186h.155a.774.774,0,0,0,.155-1.518l-.774-.186A292.331,292.331,0,0,1,349.27,91.295q1.7-3.5,3.438-6.753a117,117,0,0,0,21.313,1.89,117,117,0,0,0,21.313-1.89q1.735,3.253,3.439,6.753a292.379,292.379,0,0,1,25.711,82.525,255.044,255.044,0,0,1,2.168,48.728c-.4,9.107-1.208,18.68-2.385,28.469a53.878,53.878,0,0,0-11.71,34.664A59.663,59.663,0,0,0,415,302.191c-.465,1.859-.9,3.655-1.363,5.39H385.607c.651-10.378,1.022-19.64.867-25.8-.062-2.912-.186-5.576-.341-8.054l2.013-.062a.775.775,0,1,0-.062-1.549l-2.076.062c-.527-7.28-1.487-12.484-2.943-16.046-1.89-4.678-4.863-6.939-9.076-6.939s-7.187,2.261-9.076,6.939-3.067,13.1-3.377,25.619c-.155,6.443.186,15.644.805,25.8H334.4c-.372-1.456-.836-3.253-1.332-5.328a59.6,59.6,0,0,0,2.447-16.542,57.244,57.244,0,0,0-1.394-13.32l.62.062h.062a.775.775,0,0,0,.062-1.549l-1.146-.093a52.57,52.57,0,0,0-9.944-19.795c-1.177-9.758-1.983-19.3-2.385-28.407a254.915,254.915,0,0,1,2.168-48.728M297.475,333.076c-6.815,11.276-12.732,24.689-18.649,42.192.62-60.778,14.157-99.717,41.355-118.83a47.105,47.105,0,0,1,9.138,28.933,54.982,54.982,0,0,1-1.921,14.157,3.1,3.1,0,0,0-.527.836c-11.586,8.457-21.22,19.175-29.4,32.712m65.332-19.33c.341,4.864.713,9.851,1.084,14.807H335.3l-2.385-14.807Zm-20.941,26.517-.9-5.483h23.45q.217,2.757.465,5.483Zm32.186,31.38c-1.8-17.843-6.722-68.77-6.227-89.773.248-11.431,1.239-19.33,2.912-23.45,1.239-3.067,2.385-3.067,3.315-3.067s2.076,0,3.315,3.067c1.673,4.12,2.664,11.988,2.912,23.45.465,19.64-4.461,71.62-6.257,89.773m32.96-31.38H383.159l.465-5.483h24.07Zm5.979-11.679H384.151c.4-4.956.774-9.975,1.084-14.807h29.986Zm37.731,4.492c-8.271-13.692-18.029-24.472-29.77-32.991a54.429,54.429,0,0,1-2.075-14.714,47.1,47.1,0,0,1,9.138-28.933c27.229,19.113,40.767,58.021,41.386,118.83-5.917-17.5-11.833-30.916-18.649-42.192" transform="translate(-272.6 -50.9)"/><path d="M575.138,357.4a.774.774,0,0,0-.836-.681l-.744.062-1.332.124v-.465a22.613,22.613,0,1,0-.093,2.014l1.58-.155.743-.062a.774.774,0,0,0,.682-.836m-25.495,18.525A19.454,19.454,0,1,1,569.1,356.467a19.454,19.454,0,0,1-19.454,19.454" transform="translate(-448.192 -246.155)"/><path d="M562.207,386.038a17.069,17.069,0,1,1,17.131-17.069,17.069,17.069,0,0,1-17.131,17.069m0-31.04a13.971,13.971,0,1,0,14.033,13.971A13.971,13.971,0,0,0,562.207,355" transform="translate(-460.755 -258.657)"/></g></g></g></g></svg>